<?xml version="1.0" encoding="utf-8"?>
<!-- Generator: Adobe Illustrator 19.0.0, SVG Export Plug-In . SVG Version: 6.00 Build 0)  -->
<svg version="1.1" baseProfile="basic" id="Layer_1"
	 xmlns="http://www.w3.org/2000/svg" xmlns:xlink="http://www.w3.org/1999/xlink" x="0px" y="0px" viewBox="0 0 548.8 1085.9"
	 xml:space="preserve">
<style type="text/css">
	.st0{fill:#F3F3F3;}
</style>
<path id="XMLID_239_" class="st0" d="M499,543.6c-36.7-59.2-37.7-46.2-74.4-105.5c-30.9-49.8-61.7-99.6-92.6-149.3
	c-3.1-5.1-10-18.2-7.9-35.6c1.5-12.1,7-23.7,16.3-32.8l30.3-29.7c29.1-28.5,18.3-75.8-17.9-90.8c-14-5.8-27.5-12.3-40.9-19l-68-34.1
	c-36-18-77.2-27.6-119.3-27.6l-97.7,0v946.2c0,103.9,166.3,141.5,230.6,52.1l228.3-317.1C544.7,641.7,530.5,591.3,499,543.6z"/>
</svg>
